<svg xmlns="http://www.w3.org/2000/svg" viewBox="0 0 86.23 76.34"><defs><style>.cls-1{fill:none;stroke:#f1f8f6;stroke-width:8px;}.cls-2{fill:#3c2d29;}.cls-3{fill:#fff;}</style></defs><g id="レイヤー_2" data-name="レイヤー 2"><g id="レイヤー_1-2" data-name="レイヤー 1"><path class="cls-1" d="M8.21,20.9H78a4.21,4.21,0,0,1,4.21,4.34l-2.16,43a4.2,4.2,0,0,1-4.2,4.07H10.36a4.2,4.2,0,0,1-4.2-4.07L4,25.24A4.21,4.21,0,0,1,8.21,20.9Z"/><path class="cls-1" d="M12.67,39.92V32.2H10.15V29.91H18V32.2H15.48v7.72Z"/><path class="cls-1" d="M25.37,39.92l-.66-2.09h-3.1l-.67,2.09H18.19l3.22-10h3.53l3.22,10ZM24,35.5a22.89,22.89,0,0,1-.79-3h-.05a21.49,21.49,0,0,1-.83,3Z"/><path class="cls-1" d="M34.74,39.92l-2.21-4-.54.64v3.33H29.26v-10H32v3.23l2.56-3.23h3.19l-3.28,4,3.56,6Z"/><path class="cls-1" d="M38.94,39.92v-10H46V32.2H41.71v1.49h3.66v2.25H41.71v1.68h4.6v2.3Z"/><path class="cls-1" d="M47.41,34.89c0-3.31,1.94-5.28,4.73-5.28s4.69,2,4.69,5.28-1.91,5.32-4.69,5.32S47.41,38.29,47.41,34.89Zm6.56,0c0-2-.81-2.9-1.83-2.9s-1.88.92-1.88,2.9.85,3,1.88,3S54,36.86,54,34.89Z"/><path class="cls-1" d="M64.2,29.91h2.72v6.45a3.89,3.89,0,0,1-4.2,3.85c-2.53,0-4.21-1.63-4.21-3.85V29.91h2.81v6.21c0,1.24.57,1.74,1.4,1.74s1.48-.48,1.48-1.74Z"/><path class="cls-1" d="M70.73,39.92V32.2H68.21V29.91h7.86V32.2H73.54v7.72Z"/><path class="cls-1" d="M26.5,54.48c0-5.76,3.37-9.18,8.22-9.18s8.17,3.46,8.17,9.18c0,5.91-3.33,9.26-8.17,9.26S26.5,60.39,26.5,54.48Zm11.41,0c0-3.44-1.41-5-3.19-5-1.61,0-3.26,1.61-3.26,5s1.47,5.13,3.26,5.13S37.91,57.92,37.91,54.48Z"/><path class="cls-1" d="M55.33,63.23l-3.84-6.9-.94,1.12v5.78H45.79V45.82h4.76v5.62L55,45.82h5.56l-5.72,7L61,63.23Z"/><path class="cls-1" d="M21.26,12.52V30.09H31.54V16.89A2.94,2.94,0,0,1,34.48,14H51.75a2.94,2.94,0,0,1,2.94,2.94v13.2H65V12.52A8.51,8.51,0,0,0,56.45,4H29.78A8.52,8.52,0,0,0,21.26,12.52Z"/><path class="cls-2" d="M8.21,20.9H78a4.21,4.21,0,0,1,4.21,4.34l-2.16,43a4.2,4.2,0,0,1-4.2,4.07H10.36a4.2,4.2,0,0,1-4.2-4.07L4,25.24A4.21,4.21,0,0,1,8.21,20.9Z"/><path class="cls-3" d="M12.67,39.92V32.2H10.15V29.91H18V32.2H15.48v7.72Z"/><path class="cls-3" d="M25.37,39.92l-.66-2.09h-3.1l-.67,2.09H18.19l3.22-10h3.53l3.22,10ZM24,35.5a22.89,22.89,0,0,1-.79-3h-.05a21.49,21.49,0,0,1-.83,3Z"/><path class="cls-3" d="M34.74,39.92l-2.21-4-.54.64v3.33H29.26v-10H32v3.23l2.56-3.23h3.19l-3.28,4,3.56,6Z"/><path class="cls-3" d="M38.94,39.92v-10H46V32.2H41.71v1.49h3.66v2.25H41.71v1.68h4.6v2.3Z"/><path class="cls-3" d="M47.41,34.89c0-3.31,1.94-5.28,4.73-5.28s4.69,2,4.69,5.28-1.91,5.32-4.69,5.32S47.41,38.29,47.41,34.89Zm6.56,0c0-2-.81-2.9-1.83-2.9s-1.88.92-1.88,2.9.85,3,1.88,3S54,36.86,54,34.89Z"/><path class="cls-3" d="M64.2,29.91h2.72v6.45a3.89,3.89,0,0,1-4.2,3.85c-2.53,0-4.21-1.63-4.21-3.85V29.91h2.81v6.21c0,1.24.57,1.74,1.4,1.74s1.48-.48,1.48-1.74Z"/><path class="cls-3" d="M70.73,39.92V32.2H68.21V29.91h7.86V32.2H73.54v7.72Z"/><path class="cls-3" d="M26.5,54.48c0-5.76,3.37-9.18,8.22-9.18s8.17,3.46,8.17,9.18c0,5.91-3.33,9.26-8.17,9.26S26.5,60.39,26.5,54.48Zm11.41,0c0-3.44-1.41-5-3.19-5-1.61,0-3.26,1.61-3.26,5s1.47,5.13,3.26,5.13S37.91,57.92,37.91,54.48Z"/><path class="cls-3" d="M55.33,63.23l-3.84-6.9-.94,1.12v5.78H45.79V45.82h4.76v5.62L55,45.82h5.56l-5.72,7L61,63.23Z"/><path class="cls-2" d="M21.26,12.52V30.09H31.54V16.89A2.94,2.94,0,0,1,34.48,14H51.75a2.94,2.94,0,0,1,2.94,2.94v13.2H65V12.52A8.51,8.51,0,0,0,56.45,4H29.78A8.52,8.52,0,0,0,21.26,12.52Z"/></g></g></svg>